<?xml version="1.0" encoding="UTF-8"?><svg id="uuid-40ac263c-dc62-4dc1-9415-693293e209ad" xmlns="http://www.w3.org/2000/svg" viewBox="0 0 1024 1024"><path d="M102.4369193,519.4185403c-3.4500807-2.0700484-5.1768547-4.4868386-5.1768547-7.2469031,0-1.1477153,1.3800323-6.9001614,4.1400968-17.2504034.9188657-6.2101452,3.7968225-17.5936778,8.6269354-34.1540651l14.8336132-1.0367579c-.2288496-2.7600645-1.8411988-7.2434357-4.8266455-13.453581-.6934836-1.3800323-1.0367579-3.1068063-1.0367579-5.1768547,0-2.7600645,2.8744893-12.0735487,8.623468-27.9439198,1.8411988-9.4279089,4.7122208-18.0548443,8.6269354-25.8773388,2.7600645-4.597796,6.5534196-10.922366,11.387-18.9737101,3.2177637.4611666,5.2878121.9223331,6.2066778,1.3800323,3.4535481,1.1511827,5.4022369,1.7233066,5.8668709,1.7233066,1.6054144,0,3.9077798-1.2621401,6.9001614-3.793355,2.9854467-.4576991,4.9445377-1.1477153,5.8668709-2.0700484.9153983-.9188657,1.7233066-2.7600645,2.4133228-5.5201291l-8.2801936-1.0367579-3.4500807-12.4202905c0-2.2954306,3.4500807-6.9001614,10.3502421-13.8003227,1.6054144-1.6054144,3.4500807-3.9077798,5.5201291-6.9001614,2.9854467-5.0554951,5.0554951-8.1623014,6.2101452-9.3134841,3.9077798-3.9077798,6.6678444-8.0478767,8.2801936-12.4202905l2.4167902-2.4167902c4.1400968-5.9778282,7.4688179-9.8856081,10.0035003-11.7302743,1.3800323-1.1477153,6.092253-4.365479,14.1435971-9.6602259l1.0367579,1.0367579,9.6602259-4.830113.6900161-7.9369193,44.5077745-35.5340973c1.6054144-1.3800323,5.0554951-3.4500807,10.3467746-6.2101452l9.3169516-6.2101452,8.623468-2.4167902c8.9736772-6.2101452,14.0291723-9.3134841,15.180355-9.3134841,2.0735158,0,5.4022369,1.1511827,10.0069677,3.4500807l4.830113-12.7670322,14.1435971,2.7600645,1.0367579-6.5534196c7.5901775-2.298898,12.6456726-3.9077798,15.180355-4.830113,8.2801936-3.2177637,16.5603873-5.1768547,24.8405809-5.8668709l10.3502421-3.1033389c8.0478767-1.6088818,12.5347153-2.6421723,13.453581-3.1068063,2.0735158-.9153983,4.8335804-2.9854467,8.2801936-6.2101452,3.2212311.232317,5.9812957.3467418,8.2801936.3467418,2.7600645,0,8.5090432-1.4944571,17.2538708-4.4868386,3.4466133-1.1477153,7.2434357-1.7233066,11.3835326-1.7233066,3.4500807,0,6.7822692.4611666,10.0035003,1.3800323,2.531215.6900161,4.1400968.9223331,4.8335804.6900161l45.8826057-1.3800323c8.7378928.4611666,16.7857694,4.7156882,24.1505648,12.7635648,5.0554951,5.5201291,8.1623014,8.2801936,9.3134841,8.2801936,4.1400968,0,8.0513441-4.830113,11.7337417-14.4903389,7.3578605,4.830113,13.5680057,7.2469031,18.6269683,7.2469031,1.6088818,0,3.2212311-.1144248,4.8335804-.3467418l9.3134841-2.0700484,11.0402582,3.7968225c30.36071,7.8224945,49.906544,13.685898,58.6513716,17.5936778v10.3502421h-.3432744c-3.6823977,3.6823977-5.9847631,6.0991879-6.9001614,7.2469031-8.5125106,8.9702098-14.1470645,13.453581-16.9071291,13.453581-2.3023654,0-6.0957204-1.4909896-11.387-4.4833712-13.1068392-5.2878121-28.1762368-11.0402582-45.1943233-17.2504034l-4.4868386-11.387c-4.6012634.9223331-7.5867101,1.6123493-8.9667424,2.0700484-3.6823977,1.1546501-5.8668709,1.7267741-6.556887,1.7267741-.9223331,0-8.3980858-2.4167902-22.4237907-7.2469031-4.1400968-1.6054144-6.789204-3.2177637-7.9369193-4.830113-1.1546501-1.6054144-2.1879406-3.2177637-3.1033389-4.830113-7.5936449,2.9923815-12.4202905,4.4868386-14.4938063,4.4868386h-47.262638l-8.623468-1.0367579c-10.3537095,1.6123493-18.2871613,3.5679729-23.8072904,5.8668709l-21.0472259,2.4133228c-8.9667424,1.8446663-15.9882634,3.2246985-21.0437585,4.1400968-2.7600645.464634-7.2434357,2.4167902-13.4570484,5.8668709l-17.246936,7.9334519-12.4202905,8.6269354c-25.0728979,10.3502421-41.980027,21.3905002-50.7179198,33.1207746-5.7524461,1.6123493-12.5381827,4.830113-20.3572097,9.6602259,0,2.7600645-.4611666,5.4057043-1.3800323,7.9334519-4.6012634,2.3023654-10.6935164,7.2469031-18.2836939,14.8370807l-8.2801936,7.5901775c-6.9001614,9.4313763-11.3835326,14.7226559-13.4570484,15.8703711-2.066581,1.3800323-4.025672,2.0700484-5.8634035,2.0700484-.9223331,0-2.3023654-.1144248-4.1400968-.3467418,1.3800323,2.5346824,2.0700484,4.1400968,2.0700484,4.830113s-5.6380213,10.2392847-16.9071291,28.6374034c-8.7413602,9.2025268-13.8003227,14.8336132-15.180355,16.9036616-.6865487,1.3800323-3.3356559,7.4792201-7.9334519,18.2871613l-7.2469031,17.2504034-3.1033389,10.0035003c-6.4424622,11.2725752-10.4681343,19.6671936-12.0770161,25.1873227-.9188657,3.6823977-2.4133228,10.582559-4.4833712,20.7004841-3.4500807,13.5714732-5.4057043,21.0437585-5.8634035,22.4237907-.6934836,3.2246985-4.4868386,5.5201291-11.387,6.9001614.6900161,5.9847631,3.3321885,10.9293008,7.9334519,14.8370807-2.298898,5.9812957-3.4466133,9.8925429-3.4466133,11.7302743,0,5.0624299.9153983,11.3835326,2.7600645,18.9737101.2253822.6900161.3432744,1.1546501.3432744,1.3800323,0,2.0700484-1.0367579,3.5679729-3.1033389,4.4868386l-27.2573711,10.3502421c-2.0700484.6900161-3.1033389,1.9556236-3.1033389,3.793355,0,.9223331.5686565,2.1879406,1.7233066,3.7968225,3.4500807,5.2912795,5.6345539,9.2025268,6.556887,11.7302743,1.8377314,4.830113,2.9854467,7.3613279,3.4466133,7.5901775,5.0589625,4.1400968,10.2323498,8.3980858,15.5270968,12.7635648l5.8668709,15.8703711c1.6054144,3.4500807,2.6387049,7.5901775,3.1033389,12.4202905h-2.0700484l2.0700484,11.7302743,4.830113,1.3800323c2.5277476,4.3724138,3.793355,7.9369193,3.793355,10.6969838h1.0367579c.6900161,4.6012634,1.1477153,7.5901775,1.3800323,8.9702098,1.1477153,7.1324784,2.1844732,11.5014248,3.1033389,13.1103066l6.2136126,12.416823c6.4355274,16.7927043,9.6602259,26.6852472,9.6602259,29.6741613,0,2.298898-2.3023654,3.4466133-6.9001614,3.4466133l3.4466133,8.6269354c4.6012634-.2253822,8.1623014.1178922,10.6969838,1.0332905,2.2954306.9223331,4.4833712,2.0735158,6.556887,3.4535481,4.597796,5.2912795,8.9667424,10.6935164,13.1068392,16.2136455l10.3537095,9.3134841,7.9334519,10.0069677c9.1955919,5.0554951,15.5270968,8.9702098,18.9737101,11.7302743.2288496,5.5201291,2.0735158,9.5423337,5.5201291,12.0770161,4.3689464,3.2177637,9.8890755,5.9778282,16.5603873,8.2801936l15.5270968,9.3134841,11.7302743,5.5201291,10.6969838,5.5201291,11.3835325,4.4868386,7.9369193,5.8634035c2.2954306,1.1477153,4.597796,3.1033389,6.9001614,5.8634035,3.2177637-3.2212311,6.3211026-4.8266455,9.3134841-4.8266455.4576991,0,13.8003227,3.5610381,40.0209359,10.6935164,28.5160438.2253822,43.5264953.3467418,45.0244198.3467418,1.4909896,0,3.2767098.6865487,5.3467582,2.066581,3.9077798,2.0735158,7.2434357,3.3321885,10.0035003,3.7968225,3.2212311-1.8446663,5.1768547-3.3356559,5.8668709-4.4833712,1.8377314-1.6123493,3.2177637-2.4167902,4.1400968-2.4167902l4.1400968.3432744,2.4133228.3467418,27.9473873-3.793355c4.3637453-.232317,14.7139873-2.5346824,31.0489925-6.9001614,8.5055758,2.5277476,13.5680057,3.793355,15.180355,3.793355,3.4500807,0,9.1955919-2.6456398,17.2504034-7.9334519l16.2136455-3.7968225c9.8890755-3.2246985,16.4424951-5.7524461,19.6671936-7.5901775l7.9334519,1.7267741c2.9889141.4576991,12.7670322-2.0735158,29.3274195-7.5936449,19.0881348-6.4389948,29.0951025-9.8890755,30.0139682-10.3467746.6934836-.464634,2.531215-2.6491072,5.5201291-6.556887l13.113774-6.556887c7.1255435-4.1400968,13.8003227-6.2066778,20.0070006-6.2066778,1.3800323,0,4.1400968.6865487,8.2801936,2.066581.2288496-5.9812957,1.2621401-9.6602259,3.1068063-11.0402582,1.1477153-1.1511827,5.0554951-3.1033389,11.7302743-5.8634035,7.3578605-4.3724138,11.4979573-6.556887,12.4202905-6.556887,1.6054144,0,4.0222046,1.0367579,7.2434357,3.1068063-.9188657,12.1879735-3.3356559,21.6158824-7.2434357,28.2906616-2.0700484,3.4500807-3.6823977,7.9369193-4.830113,13.4570484-.6900161,2.066581-2.0700484,3.793355-4.1400968,5.1733873-1.8446663,1.1477153-11.5048922,3.2177637-28.9806778,6.2101452-8.0548115,3.4500807-13.453581,5.4022369-16.2136455,5.8634035-1.6123493.4611666-7.8224945,1.9521562-18.6339031,4.4868386l-15.180355,3.1068063-16.2136455,4.4833712-14.4903389,2.0700484c-14.2649567,4.365479-22.5451504,6.5534196-24.8405809,6.5534196-2.5346824,0-6.0957204-.1178922-10.6969838-.3432744-3.2212311,0-7.9334519-.1178922-14.1435971-.3432744v2.066581c0,4.3689464-2.7600645,6.556887-8.2801936,6.556887-.9223331,0-1.8446663-.1178922-2.7600645-.3432744-4.3724138-.464634-6.6747792-.6934836-6.9001614-.6934836-.232317,0-1.4979245.2288496-3.7968225.6934836l-42.4342587,9.6602259c-8.9684761,1.8377314-19.3187181,2.9854467-31.0489925,3.4466133l-26.2206132,1.3800323h-1.3800323c-2.0700484,3.2212311-4.9480052,4.9445377-8.623468,5.1768547-10.582559.4576991-19.6671936.6900161-27.2573711.6900161-4.830113,0-12.5381827-2.0700484-23.1172743-6.2101452-2.298898-.9223331-5.1733873-1.3800323-8.623468-1.3800323-2.9923815,0-6.0957204,2.0700484-9.3169516,6.2101452l-16.9036616-.6900161c-4.1400968-6.4424622-8.0548115-9.6602259-11.7302743-9.6602259h-1.0332905c-4.8335804,0-9.0915694.1144248-12.7670322.3432744-3.6823977.4611666-5.7524461.6934836-6.2101452.6934836-8.7448276,0-19.6637262-3.5714403-32.7775002-10.6969838-9.8890755-5.5201291-20.9293337-10.814876-33.1207746-15.8703711-19.0916023-11.9625913-31.7407423-19.438344-37.9474201-22.4272582l-2.4167902-6.2066778h7.5901775v-4.8335804c0-7.5867101-2.8779568-11.7268069-8.6269354-12.4202905-3.4466133,3.9112472-6.3280374,5.8668709-8.623468,5.8668709-1.1546501,0-5.1768547-2.8779568-12.0770161-8.6269354l-23.4605487-16.2136455-7.2434357-10.0069677-3.4500807-3.793355-12.0735487-17.9404196c-17.9404196-24.3759469-29.9030109-51.7512103-35.8808391-82.1119203l6.9001614-4.1400968v-6.5534196l-7.5936449-5.1768547c0-5.2878121-1.0332905-10.2323498-3.1033389-14.8336132l-2.0700484-7.2469031c-2.5346824-3.9077798-3.9147147-6.4355274-4.1400968-7.5901775-.232317-.9153983-.3467418-5.2878121-.3467418-13.1103066l-1.3800323-15.180355,2.0735158-6.9001614c-2.3023654-6.6678444-3.4535481-11.0402582-3.4535481-13.1103066,0-5.2878121,1.7267741-10.3502421,5.1768547-15.180355.4576991-.4576991,1.3800323-4.7122208,2.7600645-12.7635648Z" fill="#000" stroke-width="0"/><path d="M644.0965509,740.9627122c-10.2676437-9.3048483-20.6113523-17.0641882-29.0864461-26.6161264-14.7459499-16.6778232-25.9954295-35.8893696-34.8378962-56.5830691-1.8052596-4.167861-2.1029467-6.7902138,1.6532266-10.4703706,12.0348709-11.9145396,19.0088195-27.2178796,25.9827198-42.5655827,8.430779-18.5590994,12.6619952-37.9352918,14.9296364-58.229965,1.7862193-16.3801361-.1457024-32.2535276-1.9826154-48.2536294-.4560508-4.5289516-.3293888-9.1402022-1.2098371-13.5171207-3.3570986-16.6081857-10.7933804-31.27174-20.4466579-44.8331756-6.0111048-8.4497711-12.4149536-16.6081857-18.3310498-25.0769488-.8044801-1.1971757-.5384464-3.9398598.2660337-5.3460447,7.4933063-13.5931373,14.8916039-27.2622427,22.9549617-40.5259912,10.6097423-17.3809157,21.3018317-34.7872024,32.9123536-51.503058,6.0427582-8.6778206,14.1441484-15.8354074,21.1497504-23.4680853-4.6302909,148.3081005-9.2352107,296.4704986-13.9541795,446.9891675M559.4214847,598.5707562c15.8164153-18.7301245,29.308165-38.0999863,32.1965514-62.505496,1.2161678-10.0650135-1.0514734-20.6557154-2.4703197-30.8917057-1.3428781-9.6406161-2.4449969-19.6612665-5.8654507-28.5797498-3.6104709-9.33655-9.8243026-17.5709812-14.8979346-26.2931166-.7917704-1.3682008-2.5589976-2.9137092-2.2866332-3.9335291,2.2549315-8.2153908,4.8393001-16.2914582,7.4806449-24.9692788,56.2600109,57.73593,54.594123,158.9748189-.4877526,221.4423308-4.8582922-15.7593908-9.3238886-30.213936-13.6691055-44.2694548M644.9833299,293.834173c-16.0444166,12.8330203-25.6913634,30.8094068-36.2313715,47.9179582-13.0484085,21.1244276-25.6343872,42.5465907-37.5552575,64.3614494-5.5360619,10.1409817-9.0451936,21.4411068-13.61846,32.6589329l-2.8630637,19.2178287c-2.2803025,11.0214783-4.794937,21.9352384-7.7149768,32.7603205-4.3262731,16.2534258-6.2961788,32.570255-4.2439259,49.4191034,2.4133435,19.7626058,2.6793772,39.7912453,8.3991256,59.0027433,2.9644029,9.9762873,6.4608249,19.8005899,9.9129805,29.6248925,8.3293914,23.9621203,16.5384998,48.1586208,31.8418398,68.5926173,9.2731948,12.3516467,19.0847877,24.3041705,29.5741987,35.5853518,5.9794514,6.3911391,14.0428091,10.7300736,20.5733682,16.6778232.6080839.5574384,1.1907967,1.2161678,1.7291948,1.9255909,1.3111764.7284152,2.5906993,1.1338206,3.3951311.5637691.5954225-.4117361,1.165474-.9501341,1.7102027-1.5645487.1710251-.7854397.3103968-1.5962021.3990747-2.4703197.2976871-3.1734122.6904311-6.3278323,1.9065989-9.209888.1013393-21.4601472.6143663-42.8379471,1.0894575-64.2727232.3230582-15.3603645,2.5146345-33.1276935,3.4774299-46.1190775.3674213-5.1053338,3.9082064-37.7959201,4.5542744-56.6654163.8677869-25.0072629,2.4576583-49.9765418,3.502801-74.9901354.9944489-23.1576885,1.9192603-46.315377,2.5083521-69.4857753.8994403-35.3509715,1.4758225-70.7146044,2.3056253-106.0402049.2216706-9.8939401.8741176-19.7689365,1.5391776-29.6312232.1076699-1.1527643.2407109-2.1915763.4814219-3.1417587-2.1409792-.1583154-4.28191-.4623815-6.4482119-.5510111-2.6666675-.1203313-11.1987858-.4687605-13.7514527-.7220845-2.0839547,2.3815935-4.1235463,4.6935977-6.4735346,6.5557852" fill="#fd0" stroke="#000" stroke-miterlimit="10"/><path d="M885.8766132,516.5977803c10.6667426,2.4133435,13.0293923,11.3065041,12.1172665,20.1680112-.84244,7.9303651-10.9200907,13.3460473-18.9454885,11.2494796-11.1481162-2.9390802-16.4941609-12.2312671-13.5677662-23.7214576,1.6342104-6.6572211,10.8124208-10.1219897,20.3959883-7.6960331" fill="#fd0" stroke="#000" stroke-miterlimit="10"/><path d="M531.2255386,591.5765591c1.9255909,1.2098371,2.964403,1.8115903,3.9271984,2.4956907,3.0910649,2.3119559,4.5352823,6.4101795,1.2414905,8.7664985-7.5503307,5.3649885-14.7205788,11.2557619-22.3532568,16.4371123-2.4576583,1.68488-7.5440001,3.3888004-8.5827637,2.2929639-3.7688347-4.0601911-.6080839-9.4949137,1.7798886-11.5154649,7.6769927-6.600245,15.9874404-12.4213326,23.987443-18.4768005" fill="#fd0" stroke="#000" stroke-miterlimit="10"/><path d="M892.4597025,501.4768703c-9.5328978-4.0728525-18.3120577-.2153399-26.907507,4.541613-2.7617003,1.5518873-5.9287817,3.4457765-7.3982977-.7410766-.4243974-1.2288292,2.463989-4.7759933,4.4909192-5.6754336,7.5756535-3.3064048,14.8092567-8.7854906,23.6644332-6.8852224,5.2763589,1.0957882,10.394354,3.0910649,15.4870265,5.0736804,1.0007796.3926957,1.4188463,2.5083038,2.0965919,3.8194802-1.3364991.5764305-2.7490147,1.6785493-4.0665218,1.6215248-2.3436335-.1773558-4.6239361-1.0641347-7.3666443-1.7545658" fill="#fd0" stroke="#000" stroke-miterlimit="10"/><path d="M861.0714006,557.8572608c18.483107,11.5725377,25.1022957,12.5100105,34.0841341,4.8520098,4.5922826,5.7957649,3.5851482,10.1409817-3.0593874,11.0974465-11.5155133,1.6595573-22.7523073,1.1781354-31.1387474-8.8044826-1.3491846-1.6405652-1.4315318-4.4149027-2.0586078-6.6445597.7284394-.1900172,1.4568546-.3420502,2.1726084-.500414" fill="#fd0" stroke="#000" stroke-miterlimit="10"/><path d="M929.5,543.8486181c-4.4212334,3.4458248-9.3175338,7.3349908-14.4355531,10.8821066-.2660337.1773558-2.8250313-2.609643-3.7371571-4.3325555-.2533482-.4877526,1.2605067-2.3816418,2.2866332-3.1734122,8.9755077-6.7648911,10.6287343-12.0095965,7.8733647-23.5441018-.4560508-2.0459223.7030925-4.5099113,1.1464819-6.7585604,1.7482352,1.7862676,4.6619443,3.4141231,5.0103252,5.4917471,1.1211592,6.4228408,1.2351598,13.0420295,1.8559051,21.4347761" fill="#fd0" stroke="#000" stroke-miterlimit="10"/><path d="M513.4208537,432.6859721c1.6468959.9564648,2.7870472,1.4442174,3.7245199,2.1726326,8.8994912,6.5305108,17.8749989,12.9533516,26.5337792,19.8132513,1.5265646,1.2098371,1.7039204,4.1932321,2.5083521,6.3278323-2.0839547-.4433895-4.5352823-.3610423-6.226493-1.4315077-8.2153908-5.2890203-16.2851275-10.8377435-24.3105011-16.4498219-1.944583-1.3364991-3.7561733-3.0530808-5.2320441-4.927978-.7284152-.8804483-1.1084495-3.0847343-.6080839-3.7244716.9374727-1.0641347,2.6920386-1.3618702,3.6104709-1.7799369" fill="#fd0" stroke="#000" stroke-miterlimit="10"/><path d="M493.7482306,530.9376966c3.4267845-1.051425,4.9723411-1.8495744,6.5875353-2.0078898,8.6651593-.7474556,17.3683026-1.539226,26.0777767-1.8495744,1.2541519-.0317017,3.1670815,2.1725843,3.6611164,3.6991488.3420502,1.038812-1.1907967,3.9271501-2.0205995,3.9968359-9.615245.5764305-19.2685225.9691262-28.9027596.9564648-1.3682008.0126614-2.7553454-2.3499884-5.4030692-4.7949853" fill="#fd0" stroke="#000" stroke-miterlimit="10"/><path d="M530.0087426,571.9742018c-10.1852965,2.9454109-19.2558128,5.8274666-28.4910236,8.0127606-2.077624.4687122-5.8591201-2.4956907-8.2217698-3.4521555,1.6975414-1.6025328,3.1924042-3.8701739,5.1940117-4.5922585,7.2906277-2.5463362,14.8219664-4.3515475,22.1125942-6.8409076,4.8899456-1.6722186,6.6761648,2.9137092,9.4061875,6.872561" fill="#fd0" stroke="#000" stroke-miterlimit="10"/><path d="M530.5959497,506.8165843c-4.9659621-.8107624-9.9509646-1.292136-14.7965954-2.4829811-4.6492829-1.1021188-9.1655249-2.7743375-13.6057503-4.554226-1.3492088-.5384464-2.2549798-2.2423184-3.3634776-3.3951311,1.5011935-.9121017,3.0911133-2.7300227,4.541613-2.6286834,3.9208677.3103968,7.8290258,1.3111764,11.6865384,2.2739718,3.0720729.7727783,6.1378151,1.703872,9.0325322,2.9200398,2.6983209,1.1338206,5.1686406,2.7553454,7.7530093,4.167861-.4370588,1.2035064-.8424642,2.4766987-1.2478695,3.6991488" fill="#fd0" stroke="#000" stroke-miterlimit="10"/><path d="M506.9258141,465.1156473c5.8020956,2.59703,11.5915298,5.1117128,17.361972,7.7276865,2.5336748,1.1401513,5.4156823,1.9065989,7.410959,3.7308506,1.6532266,1.5138549,2.2359394,4.2692003,3.2874128,6.4925267-2.0142205.1773558-4.3325555,1.1464819-5.9540803.4306798-7.506016-3.2747514-14.9486284-6.8092058-22.1062635-10.8314128-1.3871446-.779109-1.4188463-4.1362076-2.0522529-6.3341629.6714391-.4180184,1.3745315-.8044317,2.0522529-1.2161678" fill="#fd0" stroke="#000" stroke-miterlimit="10"/><path d="M782.5429688,561.1136484c-.601729,1.1845144-.9754568,3.0784036-1.8939134,3.4204538-8.057027,3.1670815-16.1710786,6.0871696-24.3484853,8.8171923-.7854397.3040178-2.1029467-1.0768444-3.1544201-1.6658879.7537379-1.0008279,1.298515-2.5843686,2.2549315-2.9644029,8.7031434-3.1227667,17.5012953-6.0301452,26.2551083-9.0198708.2850499.4560992.5890918.91215.8867789,1.4125156" fill="#fd0" stroke="#000" stroke-miterlimit="10"/><path d="M756.5266868,490.6853746c-7.3982977-2.6286351-14.783934-5.0609707-22.0935538-7.9177037-1.5201856-.5953742-2.4513276-2.7236437-3.629463-4.1362076,1.8748972-.4940349,4.1551997-1.9255426,5.6120784-1.311128,6.3848084,2.6350141,12.579648,5.7830552,18.7617779,8.9248139,1.1718047.6080839,2.0205995,1.9002682,3.0214274,2.8313619-.5447771.5320674-1.1211592,1.0578041-1.672267,1.6088635" fill="#fd0" stroke="#000" stroke-miterlimit="10"/><path d="M687.8396408,609.9253445c-6.9739003,3.5661562-13.890776,7.1766271-20.9534025,10.489411-.8614079.4497202-2.7426841-.4687605-3.6231323-1.3301684-.4560508-.392744-.1457024-2.337327.3737036-3.1670815,2.4006822-3.7181892,18.7491648-8.8361844,24.2028312-5.9921611" fill="#fd0" stroke="#000" stroke-miterlimit="10"/><path d="M700.5485121,462.9360558c-2.6919903-.2596547-5.466376-.1393234-8.0317043-.8614079-4.5922585-1.2668616-9.1211618-2.8820557-13.5297821-4.7569529-1.2858053-.5700998-1.9952285-2.4830294-3.0150484-3.8005364,1.4378384-.6587294,3.1354281-2.2359394,4.1869014-1.8495744,7.0752395,2.6477238,13.9984943,5.7007563,21.0230884,8.6207962-.2217189.8804483-.4307281,1.7799369-.633455,2.6476755" fill="#fd0" stroke="#000" stroke-miterlimit="10"/><path d="M726.9062403,589.1746205c-6.5431722,2.9454109-13.1623608,5.8781121-21.3017834,9.5266155.8171414-3.4901396.6967618-6.3088402,1.7925983-6.9612389,5.7957649-3.5534948,11.7688856-7.2146112,19.5091851-2.5653766" fill="#fd0" stroke="#000" stroke-miterlimit="10"/><path d="M793.112794,508.2683889c-6.030121-1.9065506-11.7815228-3.6104709-17.4442467-5.574046-1.0451427-.3800343-1.8939375-1.817921-2.3626497-2.9644029-.1836865-.4306798.8741176-1.7925499,1.6151942-2.1092774,4.4592416-1.8052113,16.2534499,4.8899939,18.1917023,10.6477264" fill="#fd0" stroke="#000" stroke-miterlimit="10"/><path d="M615.708703,425.5543363c-2.4703197-.3737036-5.0293173-.3420019-7.3539346-1.1274416-6.7775524-2.3246656-13.4917497-4.8329694-20.0792849-7.5693228-1.5772101-.633455-2.6476755-2.4830294-3.9398598-3.7498426,1.5455083-.9121017,3.1353797-2.5843203,4.6492829-2.5336748,10.8314128.4560508,19.084836,6.6001966,27.1862262,12.9660613-.1520331.66506-.3167275,1.3364991-.4624298,2.0142205" fill="#fd0" stroke="#000" stroke-miterlimit="10"/><path d="M583.2417203,649.9388885c.779109-.9627471,1.0705137-1.6278555,1.5518873-1.8875585,5.0863417-2.7173613,10.1283204-5.6057477,15.4236713-7.8733406,1.4822015-.633455,3.7308506.5510594,5.6247398.9310937-.9881182,1.944583-1.5328469,4.522621-3.0910649,5.7577808-3.4141231,2.7680068-7.2399339,5.1179952-11.1924551,7.0118844-1.5772101.7854397-4.0791832.3420502-5.8084263-.3737036-1.1781354-.4687122-1.7292431-2.3689804-2.5083521-3.5661562" fill="#fd0" stroke="#000" stroke-miterlimit="10"/><path d="M649.1226787,440.6169654c-5.6817159-2.1409308-11.407795-4.1045059-16.9058728-6.5748256-1.1464819-.5320674-1.5075242-2.9707336-2.1789149-4.541613,1.3998059-.4877043,2.9897257-1.6722186,4.167861-1.3238377,6.2961788,1.8369131,13.3207246,2.8947171,15.9684,10.4070154-.3166792.6651084-.7030925,1.3428781-1.0514734,2.0332609" fill="#fd0" stroke="#000" stroke-miterlimit="10"/><path d="M618.8409899,637.0260823c4.7442915-2.4386179,9.4949137-4.8962763,14.2328746-7.3665959.3167275,1.8432437,1.5138549,4.8519615.8931096,5.3206737-3.3253969,2.5653283-6.9485775,4.7569529-10.7427349,6.5495512-.8931096.4180184-2.7616761-1.2414905-4.2058451-1.8939375-.0317017-.8677869-.114049-1.7545658-.1774041-2.6096914" fill="#fd0" stroke="#000" stroke-miterlimit="10"/><path d="M830.5248862,544.1127671c-.3800343.7411249-.6143904,1.9255909-1.184466,2.1409792-5.0420028,1.9825671-10.115659,3.8068188-15.2336783,5.5170698-.4940591.1900172-1.3175071-.6714391-1.9699299-1.038812.4687364-.6270759.8107866-1.6215732,1.4061849-1.8559051,5.4410533-1.9572927,10.9517683-3.7751654,16.4308299-5.6501108.1710251.2914047.3673729.5764305.5510594.8867789" fill="#fd0" stroke="#000" stroke-miterlimit="10"/><path d="M815.1797444,512.8726805c4.4592658-1.811542,16.2598048,4.8899939,18.1917264,10.6477747" fill="#fd0" stroke="#000" stroke-miterlimit="10"/></svg>