<?xml version="1.0" standalone="no"?>
<!DOCTYPE svg PUBLIC "-//W3C//DTD SVG 20010904//EN"
 "http://www.w3.org/TR/2001/REC-SVG-20010904/DTD/svg10.dtd">
<svg version="1.0" xmlns="http://www.w3.org/2000/svg"
 width="700.000000pt" height="700.000000pt" viewBox="0 0 700.000000 700.000000"
 preserveAspectRatio="xMidYMid meet">
<metadata>
Created by potrace 1.14, written by Peter Selinger 2001-2017
</metadata>
<g transform="translate(0.000000,700.000000) scale(0.100000,-0.100000)"
fill="currentColor" stroke="none">
<path d="M6320 5161 c-236 -74 -922 -533 -1485 -991 -50 -41 -111 -91 -135
-110 -73 -59 -125 -102 -130 -109 -3 -3 -34 -31 -70 -61 -105 -89 -249 -219
-365 -331 -44 -42 -94 -90 -111 -106 -41 -39 -227 -191 -284 -232 -376 -269
-796 -485 -1246 -641 -124 -42 -280 -91 -344 -105 -125 -30 -296 -66 -326 -70
-39 -4 -102 -14 -139 -21 -92 -17 -432 -24 -553 -11 -59 7 -172 27 -252 47
-95 22 -92 23 -88 -2 4 -29 57 -64 129 -84 32 -9 66 -25 76 -36 17 -19 17 -20
-2 -34 -12 -9 -31 -12 -52 -8 -30 6 -33 4 -33 -18 0 -31 156 -296 192 -325 7
-6 27 -14 45 -17 46 -10 54 -25 41 -69 -17 -57 -1 -80 84 -121 69 -33 210 -69
315 -81 26 -3 59 -8 73 -11 126 -23 499 -22 670 2 122 18 173 26 240 39 41 9
85 17 97 20 142 27 516 148 678 220 275 122 405 189 645 333 96 58 177 108
180 111 3 3 39 29 80 56 136 91 365 268 554 428 27 23 66 56 86 72 52 42 394
329 400 335 3 3 39 32 80 64 41 33 80 65 85 71 15 15 351 276 485 376 225 168
480 333 685 444 126 69 147 85 140 113 -20 81 -264 702 -318 812 -37 73 -45
77 -127 51z m107 -237 c8 -23 -25 -47 -119 -85 -81 -33 -111 -34 -116 -7 -2
12 14 29 51 52 83 53 171 72 184 40z m-471 -259 c-20 -30 -74 -70 -140 -105
-46 -24 -48 -24 -61 -7 -20 27 -12 38 62 87 110 72 178 85 139 25z m-416 -260
c10 -12 3 -23 -38 -64 -47 -47 -136 -111 -154 -111 -4 0 -12 9 -18 19 -13 24
16 57 109 125 68 50 82 54 101 31z m1052 -60 c-4 -27 -34 -51 -114 -91 -69
-35 -93 -40 -116 -25 -22 14 24 55 112 101 85 44 123 49 118 15z m-1462 -274
c0 -18 -74 -89 -145 -139 l-36 -26 -21 22 c-18 18 -19 23 -8 37 24 28 128 105
162 119 37 16 48 13 48 -13z m1009 20 c26 -17 -2 -54 -82 -109 -41 -29 -82
-52 -90 -52 -20 0 -39 24 -32 41 8 20 163 127 185 128 3 1 11 -3 19 -8z m-409
-315 c9 -12 3 -23 -35 -58 -94 -88 -175 -125 -175 -80 0 35 139 152 180 152
10 0 23 -7 30 -14z m-1006 -30 c9 -15 2 -26 -44 -67 -110 -98 -167 -124 -153
-68 8 28 98 121 138 142 35 19 45 17 59 -7z m597 -287 c9 -18 6 -26 -23 -56
-44 -46 -122 -103 -147 -108 -29 -5 -47 20 -30 42 20 24 169 143 180 143 4 0
13 -9 20 -21z m-991 -49 c0 -18 -56 -81 -106 -119 -11 -8 -29 -23 -42 -35
l-22 -20 -21 20 c-29 29 -17 48 73 115 84 62 118 73 118 39z m597 -297 c5 -13
-69 -91 -129 -137 -84 -64 -103 7 -20 79 74 65 139 90 149 58z m-1003 -19 c4
-10 -5 -26 -26 -45 -34 -33 -158 -109 -175 -109 -30 0 -17 52 20 80 112 84
168 107 181 74z m-436 -281 c8 -27 -126 -117 -193 -129 -43 -8 -45 24 -2 61
75 65 183 103 195 68z m1037 -13 c13 -21 -9 -53 -73 -106 -70 -58 -106 -74
-124 -56 -20 20 42 93 121 144 48 30 66 34 76 18z m-1492 -208 c4 -1 7 -8 7
-14 0 -21 -87 -73 -177 -107 -43 -17 -53 -18 -63 -6 -16 19 2 45 55 78 68 43
127 59 178 49z m1077 -114 c0 -18 -20 -37 -83 -79 -45 -31 -89 -58 -99 -62
-19 -7 -53 27 -43 43 4 7 44 36 89 66 90 59 136 70 136 32z m-1567 -83 c12
-29 -91 -77 -195 -91 -47 -7 -48 -6 -48 19 0 31 14 40 106 66 84 24 130 26
137 6z m-501 -118 c18 -29 -41 -54 -145 -62 -76 -5 -120 6 -111 29 15 40 234
67 256 33z m-582 -22 c87 -22 46 -50 -88 -58 -73 -5 -102 5 -102 36 0 13 3 27
7 31 11 10 131 5 183 -9z m2198 -23 c7 -5 10 -15 7 -23 -11 -29 -170 -117
-202 -113 -7 1 -17 2 -22 3 -5 0 -11 10 -14 21 -6 23 6 31 128 87 77 35 84 37
103 25z m-461 -228 c6 -18 -42 -50 -115 -78 -110 -41 -110 -41 -124 -11 -15
33 1 45 99 78 75 25 134 29 140 11z m-502 -144 c11 -18 -5 -48 -33 -59 -71
-28 -203 -34 -218 -9 -12 19 22 37 111 56 105 24 132 26 140 12z m-1092 -66
c55 -20 70 -33 56 -50 -14 -17 -83 -18 -164 -3 -65 12 -89 32 -73 62 9 17 17
18 75 12 36 -4 84 -13 106 -21z m579 -22 c12 -12 0 -39 -20 -47 -30 -12 -136
-15 -174 -4 -70 18 -59 49 20 59 59 8 163 3 174 -8z"/>
<path d="M3230 4669 c-130 -14 -312 -40 -365 -53 -5 -2 -28 -6 -50 -11 -112
-22 -424 -108 -490 -135 -11 -4 -60 -22 -110 -40 -49 -18 -103 -38 -120 -45
-16 -8 -70 -30 -120 -51 -164 -68 -408 -197 -619 -327 -94 -58 -279 -192 -375
-272 -37 -31 -213 -205 -249 -247 -43 -50 -123 -170 -159 -238 -121 -231 -88
-457 87 -585 119 -87 276 -138 497 -162 158 -17 449 -4 628 28 33 6 74 13 90
16 17 2 68 13 115 24 47 11 96 22 110 25 14 3 63 16 110 30 47 13 92 26 100
29 71 19 357 121 435 155 335 147 543 256 760 399 404 265 671 544 775 809 27
71 34 112 33 204 -1 153 -91 274 -264 356 -51 25 -192 67 -254 76 -22 4 -56 9
-75 12 -58 10 -410 12 -490 3z m66 -214 c198 -58 77 -272 -237 -419 -161 -76
-281 -107 -414 -108 -216 -1 -269 117 -118 266 194 193 570 320 769 261z m501
-395 c267 -56 44 -360 -357 -487 -84 -26 -225 -49 -295 -47 -159 3 -236 86
-180 194 19 37 102 117 167 161 31 22 60 39 63 39 4 0 19 8 33 18 57 39 247
104 367 125 51 9 152 7 202 -3z m-1705 -88 c40 -25 48 -39 48 -83 0 -116 -181
-269 -423 -359 -213 -79 -448 -76 -486 7 -23 50 -4 112 54 181 35 41 156 130
231 169 71 38 226 91 286 99 24 4 45 8 47 10 2 2 50 3 105 1 85 -2 107 -6 138
-25z m454 -293 c51 -42 -47 -143 -183 -187 -70 -23 -168 -26 -189 -5 -54 54
62 161 214 197 64 15 136 13 158 -5z m330 -324 c60 -23 79 -48 78 -104 0 -52
-19 -86 -83 -154 -134 -143 -398 -254 -626 -263 -116 -4 -165 7 -206 49 -77
77 9 218 209 339 209 127 486 186 628 133z m-1080 -41 c134 -64 63 -221 -158
-353 -258 -154 -594 -201 -678 -93 -86 108 117 313 414 417 160 56 339 68 422
29z"/>
</g>
</svg>
